<?xml version="1.0" encoding="utf-8"?>
<!-- Generator: Adobe Illustrator 21.0.0, SVG Export Plug-In . SVG Version: 6.00 Build 0)  -->
<svg version="1.1" id="svg-draw" xmlns="http://www.w3.org/2000/svg" xmlns:xlink="http://www.w3.org/1999/xlink" x="0px" y="0px"
	 viewBox="0 0 600 600" style="enable-background:new 0 0 600 600;" xml:space="preserve">
<style type="text/css">
	.st0{fill:#25BCEF;}
	.st1{fill:#008842;}
</style>
<g id="logo">
	<path id="XMLID_550_" class="st0" d="M268.5,180.4L144,300.3l124.7,120.1c32.9,29.8,70.7,46.4,115.5,46.4
		c92.1,0,166.8-74.7,166.8-166.8s-74.7-166.8-166.8-166.8C339.2,133.4,298.3,149.5,268.5,180.4z M487.3,300.3
		c0,56.9-46.2,103-103,103c-28.3,0-51.8-11.5-72.4-29.8L231,300.3l80.9-73.2c18.6-18.4,44.4-29.8,72.4-29.8
		C441.2,197.2,487.3,243.4,487.3,300.3z"/>
	<path id="XMLID_549_" class="st1" d="M124.9,187v226.8c0,20.9-17.1,38-38,38l0,0c-20.9,0-38-17.1-38-38V187c0-20.9,17.1-38,38-38
		l0,0C108.1,148.7,124.9,165.8,124.9,187z"/>
</g>
</svg>
